#!OML:ASF E:\emotionWalksFemale\Project 1\Capture day 1\Session 1\Female1.ASF
:FULLY-SPECIFIED
:DEGREES
42
root 7.81257 15.5619 22.3739 -177.548 1.66631 -179.388
lowerback 8.50008 1.6688 1.09286
upperback -4.74268 2.4787 0.0403201
thorax -9.79248 1.16594 -0.993703
lowerneck -3.44369 -3.17454 -7.64721
upperneck -0.0782813 -4.07168 7.38183
head 0.927063 -1.99864 3.67957
rclavicle 1.86392e-014 1.09332e-015
rhumerus -50.8873 14.3268 -99.6008
rradius 37.6962
rwrist 15.5145
rhand -3.16371 -56.4925
rfingers 7.12502
rthumb 22.5568 -85.1947
lclavicle 1.86392e-014 1.09332e-015
lhumerus -49.2864 -5.65366 91.7288
lradius 36.598
lwrist -6.84925
lhand -0.624621 -33.2944
lfingers 7.12502
lthumb 24.992 -4.90904
rfemur 0.401998 21.5209 26.4469
rtibia 10.9032
rfoot -15.1014 -36.2615
rtoes 8.58205
lfemur -6.97935 -25.8416 -22.5573
ltibia 21.7428
lfoot -22.383 19.7916
ltoes -15.1032
43
root 7.81698 15.5623 22.3711 -177.471 1.84903 -179.423
lowerback 8.43094 1.73436 0.968404
upperback -4.74843 2.55483 0.0773346
thorax -9.76328 1.21338 -0.894777
lowerneck -3.35152 -3.15294 -7.68524
upperneck -0.197176 -4.04048 7.31573
head 0.868581 -1.98457 3.66636
rclavicle 1.32627e-015 1.44119e-015
rhumerus -50.9233 14.4828 -99.6104
rradius 37.7113
rwrist 15.5558
rhand -2.99104 -56.4568
rfingers 7.12502
rthumb 22.7226 -85.1389
lclavicle 1.32627e-015 1.44119e-015
lhumerus -49.2004 -5.4828 91.7054
lradius 36.4958
lwrist -6.93942
lhand -0.706529 -33.3661
lfingers 7.12502
lthumb 24.9135 -4.9698
rfemur 0.306579 21.5155 26.363
rtibia 10.8882
rfoot -14.9455 -36.1145
rtoes 8.01822
lfemur -7.03386 -25.8118 -22.5772
ltibia 21.758
lfoot -22.5208 19.9083
ltoes -14.7944
44
root 7.81943 15.5615 22.368 -177.531 1.60877 -179.474
lowerback 8.4972 1.67743 0.971594
upperback -4.70964 2.47395 0.0569984
thorax -9.76017 1.17195 -0.906169
lowerneck -3.3078 -3.17909 -7.66742
upperneck -0.286457 -4.07477 7.25985
head 0.832598 -2.00275 3.64324
rclavicle -4.18846e-014 -8.10048e-015
rhumerus -50.9175 14.5182 -99.6148
rradius 37.7471
rwrist 15.5788
rhand -3.03038 -56.4677
rfingers 7.12502
rthumb 22.6848 -85.1543
lclavicle -4.18846e-014 -8.10048e-015
lhumerus -49.0636 -5.42687 91.677
lradius 36.3369
lwrist -7.00586
lhand -0.812702 -33.3405
lfingers 7.12502
lthumb 24.8117 -4.93024
rfemur 0.430262 21.4796 26.3841
rtibia 10.894
rfoot -15.1487 -36.2773
rtoes 8.30674
lfemur -6.99032 -25.9951 -22.6325
ltibia 21.7709
lfoot -22.657 19.7544
ltoes -14.1681
45
root 7.82394 15.5613 22.3664 -177.559 1.6145 -179.428
lowerback 8.56798 1.70712 1.00176
upperback -4.64557 2.51377 0.063734
thorax -9.72983 1.18801 -0.923339
lowerneck -3.40527 -3.22026 -7.63373
upperneck -0.348932 -4.12343 7.22233
head 0.831745 -2.02637 3.62102
rclavicle -1.68159e-014 -5.96354e-015
rhumerus -50.8006 14.574 -99.6266
rradius 37.7016
rwrist 15.5554
rhand -3.15075 -56.5437
rfingers 7.12502
rthumb 22.5693 -85.2445
lclavicle -1.68159e-014 -5.96354e-015
lhumerus -48.9033 -5.3506 91.6265
lradius 36.2396
lwrist -7.14354
lhand -0.94995 -33.3745
lfingers 7.12502
lthumb 24.6802 -4.94611
rfemur 0.454593 21.4606 26.4675
rtibia 10.9373
rfoot -15.172 -36.2652
rtoes 8.36977
lfemur -6.9231 -26.0746 -22.5865
ltibia 21.7489
lfoot -22.6194 19.8286
ltoes -14.571
46
root 7.82951 15.5575 22.3597 -177.692 1.12749 -179.446
lowerback 8.61325 1.56285 0.980769
upperback -4.52089 2.3107 0.087351
thorax -9.62492 1.09044 -0.850869
lowerneck -3.54944 -3.22414 -7.73343
upperneck -0.377862 -4.11827 7.32519
head 0.853399 -2.02184 3.67478
rclavicle -2.01797e-014 -5.76476e-015
rhumerus -50.6569 14.6704 -99.5963
rradius 37.6319
rwrist 15.4941
rhand -3.38426 -56.4254
rfingers 7.12502
rthumb 22.3451 -85.1532
lclavicle -2.01797e-014 -5.76476e-015
lhumerus -48.7624 -5.28663 91.6201
lradius 36.201
lwrist -7.19912
lhand -1.03431 -33.3475
lfingers 7.12502
lthumb 24.5993 -4.90807
rfemur 0.739467 21.6155 26.6492
rtibia 10.9277
rfoot -15.6329 -36.8167
rtoes 9.09459
lfemur -6.81754 -26.0956 -22.5942
ltibia 21.7666
lfoot -22.3423 19.5345
ltoes -15.9233
47
root 7.83093 15.5612 22.3615 -177.517 1.65244 -179.446
lowerback 8.58344 1.74711 0.894229
upperback -4.54371 2.5506 0.1069
thorax -9.63275 1.21336 -0.820995
lowerneck -3.69971 -3.22786 -7.8277
upperneck -0.345599 -4.113 7.40096
head 0.895081 -2.01678 3.71781
rclavicle -2.04624e-014 5.96354e-016
rhumerus -50.5687 14.809 -99.5925
rradius 37.596
rwrist 15.4234
rhand -3.46936 -56.36
rfingers 7.12502
rthumb 22.2635 -85.0976
lclavicle -2.04624e-014 5.96354e-016
lhumerus -48.6625 -5.29309 91.6518
lradius 36.1938
lwrist -7.13051
lhand -0.807075 -33.2241
lfingers 7.12502
lthumb 24.8171 -4.81453
rfemur 0.434948 21.416 26.4493
rtibia 10.8886
rfoot -15.1804 -36.1311
rtoes 8.27228
lfemur -6.96192 -26.0199 -22.569
ltibia 21.7682
lfoot -22.4967 19.8826
ltoes -15.1199
48
root 7.83415 15.5577 22.3547 -177.614 1.20136 -179.435
lowerback 8.67739 1.58675 0.906557
upperback -4.51 2.33946 0.157348
thorax -9.65643 1.11102 -0.741443
lowerneck -3.75204 -3.2364 -7.74968
upperneck -0.333346 -4.11923 7.21362
head 0.901214 -2.01948 3.63583
rclavicle -2.22297e-014 -8.44835e-016
rhumerus -50.6206 15.0142 -99.6549
rradius 37.5755
rwrist 15.411
rhand -3.47997 -56.4131
rfingers 7.12502
rthumb 22.2533 -85.1519
lclavicle -2.22297e-014 -8.44835e-016
lhumerus -48.6379 -5.14695 91.6402
lradius 36.1553
lwrist -7.17747
lhand -0.592148 -33.1905
lfingers 7.12502
lthumb 25.0231 -4.80952
rfemur 0.682057 21.481 26.6179
rtibia 10.8566
rfoot -15.6331 -36.5534
rtoes 9.26548
lfemur -6.8785 -26.1464 -22.5562
ltibia 21.7847
lfoot -22.36 19.6691
ltoes -15.4699
